<?xml version="1.0" encoding="UTF-8"?>
<svg id="Layer_2" data-name="Layer 2" xmlns="http://www.w3.org/2000/svg" viewBox="0 0 24 24">
  <defs>
    <style>
      .cls-1 {
        fill: #434343;
      }
    </style>
  </defs>
  <g id="Layer_1-2" data-name="Layer 1-2">
    <path class="cls-1" d="M22,3.3c0-.7-.7-1.3-1.4-1.3H3.3c-.7,0-1.3.6-1.3,1.3v17.3c0,.7.5,1.2,1.2,1.3h17.6c.6-.1,1.1-.7,1.2-1.3,0,0,0-17.3,0-17.3ZM7.9,19h-2.9v-9.5h2.9v9.5h0ZM8,7.2c-.5,1.2-2.1,1.4-2.9.4-.8-1.1-.2-2.7,1.2-2.8,1.3-.1,2.3,1.2,1.7,2.4h0ZM19.1,19h-3v-4.9c0-1-.2-2.2-1.4-2.2-1.4,0-1.9.9-1.9,2.1v5.1h-2.9v-9.5h2.8v1.3h0s.1-.2.2-.3c.9-1.2,2.4-1.4,3.7-1.1,2,.4,2.4,2.2,2.5,4v5.7-.2Z"/>
  </g>
</svg>