<svg width="194" height="81" viewBox="0 0 194 81" fill="none" xmlns="http://www.w3.org/2000/svg">
<path d="M31.741 72.2899L9.04767 11.9517H8.6614C8.79015 13.2368 8.88672 14.8754 8.9511 16.8674C9.07985 18.8594 9.17642 21.0442 9.2408 23.4217C9.30518 25.735 9.33737 28.1126 9.33737 30.5544V72.2899H1.32227V3.4696H14.1657L35.4106 59.856H35.7969L57.428 3.4696H70.1749V72.2899H61.5804V29.976C61.5804 27.727 61.6126 25.5101 61.677 23.3253C61.7413 21.0763 61.8379 18.9879 61.9667 17.0602C62.0954 15.0682 62.192 13.3975 62.2564 12.0481H61.8701L38.887 72.2899H31.741ZM128.041 53.88C128.041 57.9925 127.043 61.4946 125.047 64.3862C123.051 67.2135 120.186 69.3983 116.452 70.9405C112.783 72.4827 108.437 73.2538 103.416 73.2538C100.841 73.2538 98.3621 73.1253 95.9801 72.8682C93.6625 72.6112 91.538 72.2578 89.6067 71.808C87.6753 71.2939 85.9693 70.6835 84.4886 69.9766V61.6874C86.8062 62.7155 89.6711 63.6472 93.0831 64.4826C96.5596 65.3179 100.133 65.7356 103.802 65.7356C107.214 65.7356 110.079 65.2858 112.397 64.3862C114.714 63.4866 116.452 62.2014 117.611 60.5307C118.77 58.86 119.349 56.9001 119.349 54.6511C119.349 52.4021 118.867 50.5065 117.901 48.9643C116.935 47.4221 115.261 46.0084 112.879 44.7232C110.562 43.3738 107.311 41.9602 103.126 40.4822C100.165 39.3898 97.5574 38.2332 95.3042 37.0123C93.1153 35.7271 91.2805 34.2813 89.7998 32.6749C88.3191 31.0684 87.1925 29.2371 86.42 27.1808C85.7118 25.1246 85.3577 22.747 85.3577 20.0482C85.3577 16.3855 86.2912 13.269 88.1582 10.6986C90.0252 8.06405 92.6003 6.03993 95.8836 4.62625C99.2312 3.21258 103.062 2.50574 107.375 2.50574C111.173 2.50574 114.65 2.85915 117.804 3.56599C120.959 4.27283 123.824 5.20457 126.399 6.36122L123.695 13.783C121.313 12.7549 118.706 11.8874 115.873 11.1806C113.105 10.4737 110.208 10.1203 107.182 10.1203C104.285 10.1203 101.871 10.538 99.9394 11.3733C98.0081 12.2087 96.5596 13.3975 95.5939 14.9397C94.6282 16.4176 94.1454 18.1526 94.1454 20.1446C94.1454 22.4578 94.6282 24.3856 95.5939 25.9278C96.5596 27.47 98.1368 28.8515 100.326 30.0724C102.515 31.2933 105.476 32.6106 109.21 34.0243C113.266 35.5022 116.678 37.1087 119.446 38.8436C122.279 40.5143 124.403 42.5385 125.82 44.916C127.3 47.2936 128.041 50.2816 128.041 53.88ZM192.338 72.2899H182.102L157.671 39.422L150.621 45.5907V72.2899H141.93V3.4696H150.621V37.3978C152.553 35.2131 154.516 33.0283 156.512 30.8435C158.508 28.6587 160.503 26.474 162.499 24.2892L181.137 3.4696H191.276L163.948 33.446L192.338 72.2899Z" fill="url(#paint0_linear_117_1086)"/>
<defs>
<linearGradient id="paint0_linear_117_1086" x1="192.338" y1="37.8798" x2="1.32226" y2="37.8798" gradientUnits="userSpaceOnUse">
<stop stop-color="#F1AFB3"/>
<stop offset="0.21" stop-color="#E3B1DC"/>
<stop offset="0.76" stop-color="#84B1F6"/>
<stop offset="1" stop-color="#91BEF3"/>
</linearGradient>
</defs>
</svg>
